<svg width="30" height="24" viewBox="0 0 30 24" fill="none" xmlns="http://www.w3.org/2000/svg">
<path d="M25.2992 2.55067C23.415 1.67234 21.375 1.03484 19.25 0.666504C19.2127 0.667036 19.177 0.682312 19.1509 0.709004C18.8959 1.1765 18.5984 1.78567 18.4 2.25317C16.1461 1.91338 13.854 1.91338 11.6 2.25317C11.4017 1.7715 11.1042 1.1765 10.835 0.709004C10.8209 0.680671 10.7784 0.666504 10.7359 0.666504C8.61086 1.03484 6.58502 1.67234 4.68669 2.55067C4.67252 2.55067 4.65836 2.56484 4.64419 2.579C0.790857 8.34484 -0.271643 13.9548 0.252524 19.5082C0.252524 19.5365 0.26669 19.5648 0.295024 19.579C2.84502 21.449 5.29586 22.5823 7.71836 23.3332C7.76086 23.3473 7.80336 23.3332 7.81752 23.3048C8.38419 22.5257 8.89419 21.704 9.33336 20.8398C9.36169 20.7832 9.33336 20.7265 9.27669 20.7123C8.46919 20.4007 7.70419 20.0323 6.95336 19.6073C6.89669 19.579 6.89669 19.494 6.93919 19.4515C7.09502 19.3382 7.25086 19.2107 7.40669 19.0973C7.43502 19.069 7.47752 19.069 7.50586 19.0832C12.3792 21.3073 17.635 21.3073 22.4517 19.0832C22.48 19.069 22.5225 19.069 22.5509 19.0973C22.7067 19.2248 22.8625 19.3382 23.0184 19.4657C23.075 19.5082 23.075 19.5932 23.0042 19.6215C22.2675 20.0607 21.4884 20.4148 20.6809 20.7265C20.6242 20.7407 20.61 20.8115 20.6242 20.854C21.0775 21.7182 21.5875 22.5398 22.14 23.319C22.1825 23.3332 22.225 23.3473 22.2675 23.3332C24.7042 22.5823 27.155 21.449 29.705 19.579C29.7334 19.5648 29.7475 19.5365 29.7475 19.5082C30.3709 13.0907 28.7134 7.52317 25.3559 2.579C25.3417 2.56484 25.3275 2.55067 25.2992 2.55067ZM10.07 16.1223C8.61086 16.1223 7.39252 14.7765 7.39252 13.119C7.39252 11.4615 8.58252 10.1157 10.07 10.1157C11.5717 10.1157 12.7617 11.4757 12.7475 13.119C12.7475 14.7765 11.5575 16.1223 10.07 16.1223ZM19.9442 16.1223C18.485 16.1223 17.2667 14.7765 17.2667 13.119C17.2667 11.4615 18.4567 10.1157 19.9442 10.1157C21.4459 10.1157 22.6359 11.4757 22.6217 13.119C22.6217 14.7765 21.4459 16.1223 19.9442 16.1223Z" fill="#E16008"/>
</svg>
