<svg width="28" height="25" viewBox="0 0 28 25" fill="none" xmlns="http://www.w3.org/2000/svg">
<path d="M2.50817 2.06057C2.76466 2.03076 3.02442 2.07162 3.25937 2.17874C3.49433 2.28585 3.69553 2.45515 3.84125 2.66832C5.93225 5.7269 8.44258 6.99907 11.2292 7.28807C11.3652 6.09665 11.6868 4.9194 12.2917 3.88241C13.1785 2.36091 14.6207 1.24174 16.6805 0.828072C19.528 0.255738 21.6955 1.28707 22.9521 2.54932L25.4908 2.07474C25.7564 2.02496 26.0308 2.05222 26.2814 2.15329C26.5321 2.25436 26.7486 2.42503 26.9054 2.64516C27.0623 2.86528 27.1529 3.12567 27.1665 3.39561C27.1802 3.66554 27.1163 3.93375 26.9825 4.16857L24.5458 8.44974C24.7683 14.6278 23.0513 18.9402 19.3906 21.9109C17.4498 23.4862 14.6703 24.3802 11.6202 24.6564C8.546 24.9341 5.07092 24.5983 1.61708 23.5897C1.32198 23.5036 1.06288 23.3238 0.878895 23.0776C0.694906 22.8313 0.596009 22.5319 0.597128 22.2245C0.598248 21.9171 0.699324 21.6184 0.885102 21.3735C1.07088 21.1286 1.33128 20.9508 1.627 20.8668C3.36383 20.3724 4.687 19.946 5.88125 19.1994C4.18267 18.2984 2.93175 17.1197 2.04633 15.7767C0.816668 13.9096 0.360501 11.8271 0.269834 9.94999C0.179167 8.07291 0.449751 6.33324 0.735917 5.07949C0.898834 4.36407 1.08867 3.64724 1.35075 2.96157C1.4432 2.71987 1.60008 2.50811 1.80437 2.34928C2.00866 2.19044 2.25114 2.09059 2.50817 2.06057Z" fill="#E16008"/>
</svg>
