<svg width="30" height="30" viewBox="0 0 30 30" fill="none" xmlns="http://www.w3.org/2000/svg">
<path d="M15 0.833496C7.17998 0.833496 0.833313 7.18016 0.833313 15.0002C0.833313 22.8202 7.17998 29.1668 15 29.1668C22.82 29.1668 29.1666 22.8202 29.1666 15.0002C29.1666 7.18016 22.82 0.833496 15 0.833496ZM21.5733 10.4668C21.3608 12.7052 20.44 18.1452 19.9725 20.6527C19.7741 21.7152 19.3775 22.0693 19.0091 22.1118C18.1875 22.1827 17.5641 21.5735 16.7708 21.0493C15.5241 20.2277 14.8158 19.7177 13.6116 18.9243C12.2091 18.0035 13.1158 17.4935 13.9233 16.6718C14.1358 16.4593 17.7625 13.1585 17.8333 12.861C17.8432 12.8159 17.8418 12.7692 17.8295 12.7247C17.8172 12.6803 17.7941 12.6395 17.7625 12.606C17.6775 12.5352 17.5641 12.5635 17.465 12.5777C17.3375 12.606 15.3541 13.9235 11.4866 16.5302C10.92 16.9127 10.41 17.111 9.95665 17.0968C9.44665 17.0827 8.48331 16.8135 7.76081 16.5727C6.86831 16.2893 6.17415 16.1335 6.23081 15.6377C6.25915 15.3827 6.61331 15.1277 7.27915 14.8585C11.4158 13.0593 14.1641 11.8693 15.5383 11.3027C19.4766 9.65933 20.2841 9.376 20.8225 9.376C20.9358 9.376 21.205 9.40433 21.375 9.546C21.5166 9.65933 21.5591 9.81516 21.5733 9.9285C21.5591 10.0135 21.5875 10.2685 21.5733 10.4668Z" fill="#E16008"/>
</svg>
