<svg width="30" height="20" viewBox="0 0 30 20" fill="none" xmlns="http://www.w3.org/2000/svg">
<path d="M12.1666 14.2502L19.5191 10.0002L12.1666 5.75016V14.2502ZM28.5433 3.15766C28.7275 3.8235 28.855 4.716 28.94 5.84933C29.0391 6.98266 29.0816 7.96016 29.0816 8.81016L29.1666 10.0002C29.1666 13.1027 28.94 15.3835 28.5433 16.8427C28.1891 18.1177 27.3675 18.9393 26.0925 19.2935C25.4266 19.4777 24.2083 19.6052 22.3383 19.6902C20.4966 19.7893 18.8108 19.8318 17.2525 19.8318L15 19.9168C9.06415 19.9168 5.36665 19.6902 3.90748 19.2935C2.63248 18.9393 1.81081 18.1177 1.45665 16.8427C1.27248 16.1768 1.14498 15.2843 1.05998 14.151C0.960813 13.0177 0.918313 12.0402 0.918313 11.1902L0.833313 10.0002C0.833313 6.89766 1.05998 4.61683 1.45665 3.15766C1.81081 1.88266 2.63248 1.061 3.90748 0.70683C4.57331 0.522663 5.79165 0.395163 7.66165 0.310163C9.50331 0.210996 11.1891 0.168496 12.7475 0.168496L15 0.0834961C20.9358 0.0834961 24.6333 0.310163 26.0925 0.70683C27.3675 1.061 28.1891 1.88266 28.5433 3.15766Z" fill="#E16008"/>
</svg>
