<svg width="154" height="21" viewBox="0 0 154 21" fill="none" xmlns="http://www.w3.org/2000/svg">
<path d="M154 20.9588H149.998L147.553 17.1804H133.3L130.904 20.9588H126.902L138.216 2.45249H142.662L154 20.9588ZM140.216 6.07664L135.35 13.5563H145.552L140.661 6.07664H140.216Z" fill="white"/>
<path d="M117.719 17.7973H118.361L128.86 2.45249H132.935L120.56 20.9588H115.545L103.17 2.45249H107.27L117.719 17.7973Z" fill="white"/>
<path d="M98.1678 20.9588H85.7675C85.01 20.9588 84.2936 20.8131 83.6185 20.5218C82.9598 20.2134 82.3751 19.8021 81.8646 19.2881C81.3706 18.7569 80.9754 18.1486 80.679 17.4631C80.399 16.7606 80.259 16.0152 80.259 15.227V8.1843C80.259 7.39607 80.399 6.65925 80.679 5.97383C80.9754 5.27128 81.3706 4.66297 81.8646 4.1489C82.3751 3.6177 82.9598 3.20645 83.6185 2.91515C84.2936 2.60671 85.01 2.45249 85.7675 2.45249H98.1678C98.9253 2.45249 99.6334 2.60671 100.292 2.91515C100.967 3.20645 101.552 3.6177 102.046 4.1489C102.556 4.66297 102.952 5.27128 103.232 5.97383C103.528 6.65925 103.676 7.39607 103.676 8.1843V15.227C103.676 16.0152 103.528 16.7606 103.232 17.4631C102.952 18.1486 102.556 18.7569 102.046 19.2881C101.552 19.8021 100.967 20.2134 100.292 20.5218C99.6334 20.8131 98.9253 20.9588 98.1678 20.9588ZM100.193 13.8904V9.54657C100.193 9.08391 100.111 8.64696 99.9463 8.23571C99.7981 7.80732 99.584 7.43891 99.304 7.13047C99.0241 6.8049 98.6783 6.54787 98.2666 6.35938C97.8713 6.17089 97.4349 6.07664 96.9574 6.07664H87.1261C86.6321 6.07664 86.1792 6.16232 85.7675 6.33367C85.3558 6.50503 85.0018 6.74492 84.7053 7.05336C84.4089 7.3618 84.1701 7.73021 83.989 8.1586C83.8243 8.56985 83.742 9.02394 83.742 9.52087V13.9161C83.742 14.3788 83.8161 14.8157 83.9643 15.227C84.129 15.6382 84.3595 16.0066 84.6559 16.3322C84.9524 16.6406 85.2982 16.8891 85.6934 17.0776C86.1051 17.2489 86.558 17.3346 87.052 17.3346H96.8339C97.3444 17.3346 97.8055 17.2489 98.2172 17.0776C98.6289 16.8891 98.9829 16.6406 99.2793 16.3322C99.5758 16.0066 99.7981 15.6382 99.9463 15.227C100.111 14.7986 100.193 14.3531 100.193 13.8904Z" fill="white"/>
<path d="M74.5395 16.7178V2.45249H78.0224V20.9588H73.6749L58.5328 6.69352V20.9588H55.0499V2.45249H59.4468L74.5395 16.7178Z" fill="white"/>
<path d="M32.0803 13.838V10.1881H51.8417V13.838H32.0803Z" fill="white"/>
<path fill-rule="evenodd" clip-rule="evenodd" d="M0 2.49668L7.91822 9.08808C11.0305 11.6789 15.4528 11.6788 18.5651 9.08808L26.4833 2.49668H22.1756L16.884 6.90153C14.7546 8.67415 11.7288 8.67415 9.59931 6.90153L4.30779 2.49668H0Z" fill="white"/>
<path fill-rule="evenodd" clip-rule="evenodd" d="M26.3761 21L18.5656 14.4983C15.4534 11.9075 11.031 11.9075 7.91874 14.4983L0.10825 21L4.41604 21L9.59983 16.6848C11.7293 14.9122 14.7551 14.9122 16.8846 16.6848L22.0683 21H26.3761Z" fill="white"/>
<path fill-rule="evenodd" clip-rule="evenodd" d="M26.3856 7.48793V0H19.1895V2.49598H23.9869V7.48793H26.3856Z" fill="white"/>
</svg>
