<svg width="12" height="7" viewBox="0 0 12 7" fill="none" xmlns="http://www.w3.org/2000/svg">
<path d="M1.15073 1.03405C1.09504 0.981422 1.02953 0.94028 0.957937 0.912971C0.886346 0.885662 0.810076 0.872721 0.733483 0.874888C0.65689 0.877055 0.581474 0.894286 0.511541 0.925599C0.441607 0.956912 0.378526 1.00169 0.325899 1.05738C0.273272 1.11307 0.232129 1.17859 0.20482 1.25018C0.177511 1.32177 0.16457 1.39804 0.166737 1.47463C0.168904 1.55123 0.186135 1.62664 0.217448 1.69658C0.24876 1.76651 0.293541 1.82959 0.349232 1.88222L5.59923 6.84055C5.70754 6.94295 5.85093 7 5.99998 7C6.14903 7 6.29243 6.94295 6.40073 6.84055L11.6513 1.88222C11.7082 1.82994 11.7542 1.76687 11.7865 1.69668C11.8188 1.62649 11.8369 1.55057 11.8397 1.47334C11.8424 1.39611 11.8298 1.31911 11.8025 1.2468C11.7752 1.17449 11.7339 1.10832 11.6808 1.05213C11.6278 0.995947 11.5641 0.950862 11.4934 0.919499C11.4228 0.888135 11.3466 0.871118 11.2694 0.869435C11.1921 0.867753 11.1153 0.881438 11.0434 0.909697C10.9714 0.937956 10.9059 0.980226 10.8504 1.03405L5.99998 5.61438L1.15073 1.03405Z" fill="#656874"/>
</svg>
